<?xml version="1.0" standalone="no"?>
<!DOCTYPE svg PUBLIC "-//W3C//DTD SVG 20010904//EN"
 "http://www.w3.org/TR/2001/REC-SVG-20010904/DTD/svg10.dtd">
<svg version="1.0" xmlns="http://www.w3.org/2000/svg"
 width="512.000000pt" height="512.000000pt" viewBox="0 0 512.000000 512.000000"
 preserveAspectRatio="xMidYMid meet">
<metadata>
Created by potrace 1.16, written by Peter Selinger 2001-2019
</metadata>
<g transform="translate(0.000000,512.000000) scale(0.100000,-0.100000)"
fill="#000000" stroke="none">
<path d="M1936 4921 c-8 -16 -6 -113 3 -147 6 -22 13 -55 16 -74 3 -19 11 -53
16 -75 6 -22 12 -47 14 -55 3 -17 43 -147 52 -170 8 -20 9 -21 18 -55 4 -16
10 -34 14 -40 15 -26 8 -49 -29 -97 -21 -28 -37 -55 -34 -60 3 -4 0 -8 -6 -8
-20 0 -146 -215 -154 -263 -1 -7 -4 -16 -8 -22 -12 -20 -5 -121 11 -165 37
-97 296 -420 324 -403 5 3 6 -10 3 -29 -3 -18 -8 -50 -11 -70 -10 -75 -16
-113 -20 -128 -2 -8 -7 -31 -10 -50 -3 -19 -10 -51 -15 -70 -5 -19 -12 -51
-15 -70 -3 -19 -10 -51 -15 -70 -5 -19 -11 -46 -14 -60 -3 -14 -10 -45 -17
-70 -6 -25 -12 -52 -14 -61 -2 -9 -12 -47 -23 -85 -11 -38 -24 -85 -28 -104
-9 -41 -6 -27 -37 -160 -14 -58 -28 -118 -30 -135 -3 -16 -8 -46 -11 -65 -13
-65 -14 -75 -15 -92 -1 -10 -5 -18 -9 -18 -4 0 -2 42 4 92 19 143 15 287 -11
463 -23 145 -105 375 -136 375 -5 0 -8 4 -5 9 14 22 -162 218 -249 278 -31 21
-60 21 -48 0 3 -7 2 -8 -2 -4 -12 10 -15 38 -4 31 5 -3 9 -3 9 0 0 3 -10 10
-21 17 -17 9 -20 8 -14 -3 3 -7 0 -5 -8 4 -8 10 -17 15 -20 11 -4 -3 -7 -1 -7
6 0 7 -4 9 -10 6 -5 -3 -10 -1 -10 5 0 6 -4 8 -10 5 -5 -3 -10 -1 -10 5 0 6
-4 9 -9 5 -5 -3 -12 -1 -16 5 -4 6 -11 8 -16 5 -5 -4 -9 -1 -9 6 0 7 -3 9 -7
6 -3 -4 -12 -2 -20 4 -7 6 -13 8 -13 5 0 -4 -9 -2 -20 4 -41 22 -172 30 -274
17 -66 -8 -69 -9 -73 -37 -2 -16 5 -19 50 -23 l52 -3 -52 -2 c-86 -3 -61 -22
30 -23 45 0 89 -2 97 -4 8 -2 29 -6 47 -9 18 -3 43 -10 57 -16 15 -5 26 -7 26
-4 0 4 7 1 15 -6 8 -7 15 -10 15 -7 0 3 12 0 27 -8 15 -8 30 -12 35 -9 4 3 8
0 8 -6 0 -6 5 -8 10 -5 6 3 10 1 10 -5 0 -6 5 -8 10 -5 6 3 10 1 10 -5 0 -6 5
-8 10 -5 6 3 10 1 10 -5 0 -6 4 -9 9 -6 5 3 11 -1 15 -9 3 -8 12 -12 21 -9 8
3 12 11 8 18 -3 6 -2 7 2 3 14 -12 15 -38 2 -31 -7 3 4 -7 23 -22 190 -154
292 -323 355 -584 0 -3 7 -65 15 -138 14 -143 12 -177 -30 -495 -5 -43 -10
-146 -10 -229 0 -156 13 -235 50 -307 17 -35 60 -82 60 -66 0 4 7 2 15 -5 14
-11 28 -51 39 -110 2 -14 16 -70 30 -124 14 -55 23 -103 20 -107 -2 -4 6 -15
18 -24 13 -8 22 -19 21 -23 -5 -13 8 -42 18 -42 6 0 8 -4 5 -9 -17 -27 151
-225 180 -214 12 4 12 8 2 22 -12 14 -11 15 5 2 9 -8 15 -16 12 -19 -3 -3 1
-12 8 -21 11 -14 10 -15 -8 -1 -18 13 -19 13 -8 0 17 -22 78 -56 69 -39 -4 8
-1 6 8 -5 8 -10 19 -15 25 -11 6 3 11 2 11 -3 0 -5 17 -9 38 -8 36 1 37 2 37
36 0 22 -5 34 -13 33 -7 -2 -12 2 -12 9 0 6 -3 8 -7 5 -3 -4 -12 1 -20 11 -9
11 -12 12 -8 2 4 -8 -3 -3 -16 11 -13 14 -45 42 -71 62 -25 20 -63 61 -84 89
-20 29 -44 59 -53 66 -9 7 -14 15 -12 18 2 3 -8 33 -22 67 -26 65 -39 99 -42
107 0 3 -5 23 -10 45 -4 22 -9 45 -11 50 -2 6 -5 20 -8 33 -3 13 -7 31 -10 40
-6 19 -14 59 -23 117 -9 56 -9 488 -1 556 4 31 12 76 17 100 5 24 12 60 15 79
7 43 11 63 31 157 8 38 12 54 34 139 12 45 23 90 25 101 2 11 11 44 20 74 14
46 60 241 72 304 2 11 15 67 28 125 24 102 26 152 13 358 0 6 -3 10 -5 7 -10
-9 -9 -59 1 -135 9 -70 7 -88 -27 -245 -21 -94 -69 -294 -107 -445 -126 -497
-160 -750 -139 -1040 13 -179 64 -428 111 -543 17 -39 26 -67 20 -62 -22 24
-64 150 -95 294 -40 181 -60 408 -51 571 10 171 62 454 135 745 38 150 88 357
111 461 40 182 41 192 31 274 -6 47 -11 96 -11 110 0 14 -1 32 -3 40 -6 25
-49 90 -59 90 -6 0 -8 4 -5 9 6 10 -133 206 -165 233 -11 9 -19 18 -18 20 1 2
-8 22 -20 45 -11 23 -21 48 -21 56 0 7 18 50 39 94 22 45 37 84 34 87 -4 3 -2
6 4 6 15 0 124 176 136 220 12 41 14 132 4 176 -6 28 -41 147 -53 184 -3 8 -5
15 -4 15 1 0 -3 12 -9 28 -6 15 -13 38 -15 50 -10 45 -34 152 -38 167 -3 8 -3
12 -1 7 3 -4 10 -4 15 -1 6 4 8 2 5 -3 -4 -6 0 -14 9 -17 10 -4 13 -2 9 7 -4
6 3 1 15 -13 12 -14 19 -18 15 -10 -4 8 3 4 15 -10 12 -14 19 -18 15 -10 -4 8
3 4 15 -10 12 -14 19 -18 15 -10 -4 9 0 8 8 -3 9 -10 19 -18 24 -19 4 0 7 -4
6 -9 -3 -10 11 -12 20 -2 4 3 1 13 -6 22 -11 14 -10 14 5 2 10 -7 16 -16 14
-20 -5 -7 22 -46 32 -46 4 0 6 -4 4 -8 -1 -4 6 -7 15 -5 10 2 17 -2 15 -9 -1
-7 2 -13 6 -13 17 0 21 14 9 29 -11 14 -10 14 5 2 10 -7 16 -17 13 -21 -3 -5
-1 -11 5 -15 6 -4 8 -11 5 -16 -4 -5 -2 -9 3 -9 17 0 22 13 9 29 -11 14 -10
14 5 2 10 -7 15 -17 13 -22 -7 -10 64 -81 75 -74 4 3 10 -2 14 -10 3 -9 12
-12 22 -8 11 4 15 3 10 -5 -4 -7 10 -9 46 -6 50 4 93 11 93 14 0 1 7 3 15 5
46 10 73 16 98 20 15 3 43 10 62 15 19 5 49 12 65 14 17 3 41 9 55 12 51 13
312 16 388 5 112 -17 133 -21 154 -32 10 -5 23 -7 28 -4 6 3 10 1 10 -6 0 -7
3 -10 6 -6 3 3 18 1 33 -5 14 -5 44 -11 67 -13 39 -3 41 -2 40 23 -2 33 -11
49 -38 63 -16 9 -19 8 -13 -3 3 -7 -1 -4 -9 6 -9 11 -16 16 -16 12 0 -5 -6 -3
-13 3 -8 6 -17 8 -20 4 -4 -3 -7 -1 -7 5 0 7 -3 11 -7 11 -5 -1 -10 0 -13 1
-3 1 -12 3 -20 5 -8 2 -26 6 -40 9 -14 3 -36 8 -50 11 -107 25 -399 31 -477
11 -22 -6 -31 -8 -93 -21 -86 -18 -105 -23 -105 -25 0 -1 -8 -3 -17 -6 -10 -2
-26 -6 -35 -8 -10 -3 -20 -5 -23 -6 -3 -1 -8 -2 -12 -1 -5 0 -8 -3 -8 -7 0 -5
-7 -9 -15 -10 -8 -1 -22 -3 -30 -4 -8 -1 -15 -5 -15 -10 0 -5 -4 -7 -9 -3 -5
3 -13 1 -16 -5 -4 -6 -31 13 -63 44 -77 75 -213 175 -229 169 -7 -3 -10 -10
-6 -16 3 -6 1 -7 -6 -3 -9 6 -9 11 -1 21 8 9 8 15 0 20 -5 3 -10 3 -10 -2 0
-4 -5 0 -11 9 -5 9 -16 15 -24 12 -8 -4 -12 -11 -8 -18 3 -6 2 -7 -2 -3 -12
10 -15 38 -4 31 5 -3 9 -3 9 0 0 3 -10 10 -21 17 -17 9 -20 8 -14 -3 5 -7 -3
-1 -18 15 -27 28 -43 36 -32 15 4 -7 -2 -2 -13 11 -11 13 -24 21 -31 17 -6 -4
-11 -3 -11 2 0 10 -108 13 -114 3z m251 -1749 c-23 -154 -73 -386 -152 -702
-104 -413 -133 -586 -138 -805 -2 -124 9 -354 18 -363 3 -3 5 -10 5 -16 0 -6
-6 -2 -12 9 -7 11 -11 36 -9 55 1 19 -3 83 -9 142 -23 228 13 492 130 958 112
446 180 791 166 843 -4 15 -2 17 7 8 8 -8 7 -40 -6 -129z m-692 -130 c-8 -8
77 -92 86 -86 15 9 89 -98 134 -190 74 -155 115 -346 115 -546 0 -47 -9 -157
-21 -245 -11 -88 -23 -230 -26 -315 -6 -173 4 -236 54 -332 34 -67 38 -86 13
-63 -11 10 -16 24 -13 33 5 11 3 13 -7 7 -8 -5 -11 -4 -7 2 3 5 -6 38 -21 74
-26 62 -27 70 -26 244 0 123 8 232 22 345 24 181 27 277 12 420 -15 143 -80
367 -103 353 -5 -3 -7 -1 -3 5 8 13 -14 63 -24 57 -4 -3 -7 3 -6 13 0 9 -4 16
-11 15 -8 -2 -10 4 -6 14 4 10 2 14 -5 9 -6 -3 -14 -1 -18 5 -5 8 -3 9 6 4 8
-5 11 -3 8 6 -3 8 -10 13 -16 12 -5 -1 -16 5 -24 14 -11 14 -11 16 1 9 9 -6
12 -5 9 5 -3 8 -10 13 -15 12 -5 -1 -38 27 -74 63 -35 35 -60 64 -55 64 5 0 2
8 -5 18 -11 14 -9 13 9 -2 12 -11 20 -22 17 -24z m241 -161 c0 -9 5 -15 12
-13 8 1 11 -2 8 -7 -3 -5 10 -42 29 -83 50 -105 91 -278 105 -439 10 -126 9
-150 -16 -355 -36 -293 -39 -513 -7 -597 12 -31 18 -55 14 -52 -5 2 -17 30
-27 62 -28 87 -25 308 10 588 25 205 26 228 15 355 -15 181 -55 339 -116 461
-27 53 -44 96 -37 96 6 0 11 -7 10 -16z"/>
<path d="M4100 4868 c0 -5 -4 -6 -10 -3 -5 3 -22 -7 -37 -22 -14 -15 -22 -21
-18 -13 7 11 2 10 -20 -4 -61 -38 -155 -107 -155 -113 0 -3 8 1 18 8 15 12 15
12 5 -1 -6 -8 -11 -19 -11 -23 0 -5 -4 -12 -8 -15 -4 -4 -4 -2 -1 5 17 28 -23
16 -73 -23 -122 -96 -122 -96 -127 -149 -3 -34 -1 -46 6 -36 5 8 7 21 4 28 -3
8 9 29 26 47 17 18 29 35 26 38 -3 2 5 13 17 24 l23 19 -19 -22 c-11 -13 -15
-23 -11 -23 5 0 -6 -15 -23 -33 -30 -31 -38 -64 -19 -83 8 -9 38 16 32 26 -2
4 5 16 18 26 18 16 19 16 8 2 -7 -10 -10 -18 -6 -18 5 0 0 -9 -10 -20 -10 -11
-14 -20 -8 -20 5 0 18 9 28 20 10 11 15 20 10 20 -4 0 -2 6 4 13 6 8 9 16 6
19 -3 3 3 11 12 19 16 13 17 12 5 -3 -8 -9 -9 -19 -4 -22 9 -5 27 21 24 36 -1
3 6 12 16 20 15 11 16 11 5 -3 -7 -9 -10 -18 -7 -21 7 -7 60 42 57 52 -1 5 5
14 15 22 15 12 16 11 3 -4 -8 -11 -9 -18 -3 -18 6 0 14 5 17 10 3 6 11 10 17
10 6 0 -8 -14 -31 -30 -23 -17 -40 -34 -37 -39 3 -4 -9 -21 -27 -37 -17 -16
-24 -20 -14 -8 9 11 14 23 11 27 -7 6 -49 -41 -49 -55 0 -4 -6 -13 -12 -19 -7
-7 -13 -21 -13 -30 0 -10 -4 -20 -9 -23 -4 -3 -6 6 -3 21 3 18 1 24 -6 19 -7
-4 -10 -17 -8 -29 2 -18 10 -22 44 -24 33 -1 48 4 71 27 17 15 32 26 34 24 2
-2 24 14 48 37 24 22 46 41 49 41 3 0 15 9 28 19 22 17 22 18 3 16 -11 0 -17
-5 -14 -11 4 -5 1 -6 -6 -1 -9 5 0 21 31 53 23 26 46 49 49 52 3 3 11 30 17
60 l11 55 -5 -50 c-3 -27 -21 -120 -39 -205 -58 -268 -77 -436 -43 -389 8 11
9 10 5 -2 -3 -9 1 -26 9 -37 10 -15 11 -23 3 -28 -8 -5 -9 -3 -4 6 6 9 4 11
-5 5 -9 -6 -11 -4 -5 5 5 9 4 11 -3 6 -8 -4 -10 -2 -6 7 3 8 1 18 -5 22 -7 4
-10 -2 -8 -15 2 -12 29 -45 60 -75 53 -51 107 -136 107 -170 0 -8 -14 -43 -30
-77 -23 -46 -27 -65 -19 -72 9 -8 10 -6 6 7 -4 10 -3 16 2 13 13 -8 51 87 51
126 0 44 -10 79 -21 72 -5 -3 -6 3 -2 12 4 12 3 15 -5 10 -8 -5 -10 -1 -5 10
4 11 2 15 -4 11 -6 -4 -17 1 -24 11 -12 15 -12 16 2 5 9 -7 19 -10 22 -6 12
11 47 -81 47 -123 0 -29 -14 -69 -49 -140 -27 -54 -55 -107 -63 -117 -13 -18
-14 -17 -14 2 0 11 4 17 8 15 11 -7 30 35 22 48 -4 6 -3 8 3 5 6 -4 14 0 17 9
8 21 8 24 -3 24 -4 0 -25 -28 -45 -62 -20 -35 -79 -121 -131 -192 -52 -71 -92
-133 -89 -137 3 -5 0 -9 -6 -9 -12 0 -33 -50 -25 -59 9 -8 26 22 20 36 -2 7 1
12 8 10 7 -1 11 6 11 15 -1 10 3 16 10 15 6 -1 11 7 11 17 0 11 8 20 17 22 13
1 9 -10 -19 -51 -20 -32 -32 -59 -27 -66 4 -7 3 -10 -3 -6 -6 4 -16 0 -23 -8
-6 -7 -17 -11 -25 -9 -10 4 -15 -12 -21 -62 -8 -76 -8 -73 79 -394 201 -742
221 -836 254 -1198 15 -159 15 -205 4 -350 -16 -213 -31 -284 -91 -408 -53
-109 -130 -208 -145 -184 -6 9 -4 11 5 5 9 -6 11 -4 5 5 -6 9 -4 11 5 5 9 -6
11 -4 5 5 -5 9 -4 11 4 6 7 -5 10 -2 9 5 -2 7 3 13 11 14 8 0 16 6 19 14 3 9
0 11 -9 6 -8 -5 -11 -4 -6 1 5 5 14 9 20 9 7 0 11 8 11 17 -1 10 3 16 10 15 6
-1 10 6 10 15 -1 10 3 15 9 11 6 -4 8 0 4 11 -4 10 -3 15 3 11 6 -3 10 -1 10
4 0 24 -20 8 -45 -35 -26 -44 -173 -204 -191 -207 -11 -2 -17 -37 -6 -36 4 1
16 1 27 -1 l20 -1 -20 -9 c-34 -14 7 -23 51 -11 28 7 59 31 110 83 39 40 80
87 91 103 42 63 73 127 67 137 -4 6 -13 0 -21 -16 -8 -14 -11 -32 -7 -38 4 -7
3 -8 -4 -4 -12 7 -34 -26 -30 -46 2 -6 -4 -12 -12 -13 -8 0 -15 -9 -15 -20 0
-11 -3 -18 -6 -15 -3 3 -14 -2 -25 -10 -10 -8 -1 8 20 35 51 68 102 177 126
269 11 42 27 156 36 253 14 150 15 198 4 317 -25 300 -57 476 -161 901 -55
226 -104 424 -109 440 -4 17 -30 99 -56 183 -36 119 -44 156 -35 165 9 9 11 8
6 -4 -3 -9 14 -79 39 -157 25 -77 68 -234 96 -349 28 -114 78 -315 110 -446
61 -243 98 -471 121 -736 17 -198 -13 -506 -61 -634 -22 -58 -24 -67 -11 -67
17 0 56 146 67 250 3 30 7 69 10 85 15 111 15 295 0 445 -9 91 -18 174 -20
185 -2 11 -7 49 -11 85 -10 89 -40 242 -76 380 -17 63 -32 122 -34 130 -2 8
-8 35 -14 60 -7 25 -14 56 -17 70 -2 14 -7 33 -10 42 -3 9 -7 25 -9 35 -2 10
-11 47 -20 83 -22 92 -22 88 -38 160 -9 36 -37 133 -62 215 -58 184 -59 190
-23 189 22 -1 44 16 111 85 105 109 248 317 230 335 -4 3 -2 6 4 6 13 0 35 48
25 54 -11 7 -64 -92 -57 -104 4 -6 1 -9 -7 -8 -7 2 -12 -5 -12 -14 1 -10 -3
-15 -9 -11 -6 4 -8 0 -4 -10 4 -10 2 -16 -6 -14 -7 1 -11 -6 -11 -15 1 -10 -3
-16 -10 -15 -6 1 -11 -7 -11 -17 0 -11 -8 -20 -17 -22 -15 -2 -13 5 11 39 93
138 161 288 161 355 0 20 -11 61 -25 90 -13 28 -22 52 -19 52 3 0 16 -24 29
-52 30 -64 31 -111 5 -180 -23 -60 -24 -68 -11 -68 21 0 44 102 39 174 -6 83
-30 138 -88 196 -43 43 -87 72 -75 48 3 -7 -1 -4 -9 6 -9 11 -16 16 -16 11 0
-5 -4 -5 -10 1 -6 6 -3 27 10 61 17 45 41 135 54 204 2 13 9 44 14 69 16 68
31 150 37 195 13 97 14 112 7 150 -7 38 -9 40 -45 41 -20 1 -37 -3 -37 -8z"/>
<path d="M2120 4697 c0 -14 21 -44 60 -82 33 -32 57 -61 55 -64 -3 -2 1 -11 7
-20 8 -10 4 -9 -9 3 -13 10 -21 22 -18 26 2 4 -11 22 -30 40 -22 21 -35 28
-35 19 0 -12 -2 -12 -9 1 -6 8 -7 18 -4 24 4 5 1 6 -7 1 -9 -6 -11 -4 -5 5 6
9 4 11 -5 5 -8 -5 -11 -4 -7 1 3 6 2 16 -3 24 -7 11 -9 9 -7 -9 1 -13 18 -42
38 -65 42 -47 226 -192 240 -189 5 2 9 -1 9 -6 0 -4 15 -8 33 -7 29 1 32 4 33
34 1 29 -10 43 -85 114 -47 45 -85 85 -84 89 1 4 -5 6 -15 5 -9 0 -16 5 -14
12 1 6 -1 11 -5 11 -20 -3 -33 2 -30 13 1 7 -7 12 -18 13 -11 0 -19 6 -17 13
2 10 -2 10 -17 2 -13 -7 -22 -7 -26 0 -11 18 -25 11 -25 -13z"/>
<path d="M3396 4053 c-4 -4 -14 -8 -23 -8 -9 0 -25 -13 -37 -28 -18 -24 -21
-42 -21 -120 0 -111 13 -193 29 -176 2 2 -3 36 -11 74 -9 44 -12 88 -8 120 4
28 8 58 8 67 1 9 3 15 6 12 2 -2 16 6 30 18 l25 23 -26 -33 c-15 -18 -30 -51
-33 -77 -8 -52 10 -170 31 -202 10 -16 11 -24 2 -29 -7 -5 -8 -3 -3 6 6 9 4
11 -5 5 -9 -6 -11 -4 -5 5 6 9 4 11 -4 6 -9 -6 -8 -12 4 -26 13 -14 29 -18 69
-17 62 3 82 16 96 66 31 113 -15 327 -67 307 -7 -3 -15 -1 -18 4 -7 12 -29 13
-39 3z"/>
<path d="M2649 3987 c8 -8 7 -15 -2 -26 -42 -50 -49 -184 -13 -254 15 -30 20
-50 13 -54 -6 -4 -7 -1 -2 7 6 9 4 11 -5 5 -9 -6 -11 -4 -5 5 6 9 4 11 -5 5
-8 -5 -11 -4 -7 2 4 6 0 27 -8 47 -17 39 -20 132 -6 169 14 35 22 99 13 93
-13 -8 -37 -116 -37 -166 0 -52 11 -114 24 -138 12 -22 57 -63 47 -42 -6 12
-5 12 6 -1 19 -23 102 -22 123 1 21 23 38 132 30 195 -16 132 -38 163 -120
163 -40 0 -53 -4 -46 -11z"/>
<path d="M3069 3676 c-2 -2 -20 -7 -39 -9 -19 -3 -35 -6 -35 -7 0 -1 -9 -3
-19 -5 -32 -6 -37 -24 -24 -87 2 -9 21 -34 41 -57 30 -33 37 -49 38 -84 1 -57
7 -90 21 -102 8 -7 9 -6 3 5 -6 12 -5 13 6 3 30 -28 36 -14 38 79 1 51 4 95 7
97 3 3 5 -32 4 -79 -2 -111 -1 -120 11 -90 6 14 9 58 8 98 -1 40 2 76 6 80 5
4 5 0 1 -8 -13 -25 33 33 48 60 19 37 16 96 -6 92 -9 -1 -19 2 -23 8 -6 10
-77 15 -86 6z"/>
<path d="M3246 3533 c-4 -4 -13 -8 -19 -8 -7 0 -12 -15 -12 -34 0 -39 -1 -39
120 -48 98 -7 110 -13 27 -13 -60 0 -70 -5 -54 -26 4 -5 -1 -1 -11 10 -19 21
-37 15 -19 -7 7 -8 10 -16 7 -19 -3 -2 1 -5 8 -6 131 -16 191 -21 232 -20 43
0 46 1 20 8 l-30 8 28 1 c24 1 32 10 28 33 0 4 7 4 17 1 9 -3 14 -3 10 1 -3 4
-14 9 -25 11 -10 2 -18 4 -18 5 0 1 -13 4 -30 6 -98 16 -89 21 30 18 82 -2
117 0 95 5 l-35 8 31 2 c26 1 32 5 32 25 0 18 -7 26 -27 30 -41 10 -396 18
-405 9z"/>
<path d="M2849 3496 c-2 -2 -20 -7 -40 -10 -20 -3 -49 -11 -65 -17 -16 -7 -32
-12 -36 -11 -5 1 -8 -2 -8 -6 0 -4 -12 -9 -27 -10 -15 -1 -30 -8 -35 -15 -4
-6 -8 -8 -8 -3 0 5 -6 3 -13 -3 -8 -6 -17 -8 -20 -4 -4 3 -7 1 -7 -5 0 -6 -7
-9 -15 -6 -8 4 -15 1 -15 -6 0 -6 -4 -8 -10 -5 -5 3 -10 1 -10 -5 0 -6 -4 -8
-10 -5 -5 3 -10 2 -10 -4 0 -6 -6 -8 -14 -5 -8 3 -23 -3 -33 -13 -11 -11 -24
-18 -30 -16 -6 2 -15 -1 -19 -8 -4 -7 -3 -9 4 -5 12 7 10 -20 -3 -31 -4 -4 -5
-3 -2 3 4 7 0 15 -8 18 -9 3 -18 -1 -21 -9 -4 -8 -10 -13 -14 -10 -5 3 -11 1
-14 -4 -4 -5 -2 -12 4 -16 5 -3 10 -15 10 -25 0 -15 6 -19 25 -18 14 1 25 6
25 11 0 4 5 5 10 2 6 -3 10 -1 10 5 0 6 5 8 10 5 6 -3 10 -1 10 5 0 6 5 8 10
5 6 -3 10 -1 10 5 0 6 5 8 10 5 6 -3 10 -2 10 4 0 6 7 8 15 5 8 -4 15 -2 15 3
0 5 10 9 22 10 11 1 24 7 28 13 4 7 10 11 14 11 3 -1 7 -1 9 0 7 2 35 9 58 13
15 3 42 13 62 21 20 8 38 11 41 6 8 -13 -4 -20 -22 -14 -11 5 -13 3 -7 -8 4
-8 5 -11 0 -7 -4 4 -14 0 -22 -10 -10 -11 -12 -12 -8 -2 4 8 0 6 -9 -4 -8 -10
-13 -22 -11 -27 3 -4 1 -10 -4 -14 -6 -3 -8 4 -6 16 4 20 3 20 -23 4 -15 -9
-35 -26 -44 -37 -10 -11 -18 -16 -18 -12 -1 5 -10 -2 -20 -15 -11 -13 -20 -20
-20 -16 0 4 -7 2 -15 -5 -11 -9 -13 -16 -5 -24 5 -5 10 -20 10 -33 0 -23 10
-30 24 -15 4 4 12 8 17 8 5 1 13 2 18 3 5 0 24 16 42 34 18 17 29 25 25 17 -4
-8 0 -6 8 4 9 11 16 16 16 11 0 -5 7 0 16 11 8 10 12 13 9 6 -5 -10 1 -9 24 2
17 9 31 21 31 27 0 6 5 7 10 4 6 -3 10 -1 10 6 0 7 3 9 7 6 3 -4 12 1 20 11 8
9 11 11 7 3 -4 -9 9 -5 35 10 40 22 42 26 38 61 -2 21 -2 40 1 43 11 11 13 55
3 55 -6 0 -8 -8 -4 -17 5 -17 5 -17 -8 -1 -8 9 -23 18 -34 21 -15 3 -13 5 8 6
16 0 26 5 22 11 -6 10 -38 14 -46 6z"/>
<path d="M3743 3103 c3 -70 14 -128 37 -203 18 -58 33 -109 34 -115 1 -5 5
-16 9 -22 5 -7 6 -13 3 -13 -3 0 -1 -11 4 -25 5 -14 12 -36 14 -48 4 -19 20
-85 30 -127 3 -8 21 -78 41 -155 19 -77 42 -161 51 -186 8 -25 16 -54 18 -65
2 -10 9 -37 15 -59 5 -22 13 -53 15 -70 3 -16 8 -39 10 -50 2 -11 7 -45 11
-75 4 -30 9 -64 11 -75 2 -11 6 -38 9 -60 3 -22 10 -78 15 -125 17 -138 19
-336 5 -462 -19 -162 -19 -164 -49 -248 -15 -41 -28 -79 -29 -85 -1 -5 -6 -13
-11 -16 -4 -4 -4 -9 2 -13 13 -8 58 101 76 184 8 36 20 138 27 227 14 179 5
353 -32 603 -36 249 -27 213 -245 1020 -57 210 -66 253 -61 303 3 36 1 57 -5
57 -7 0 -9 -33 -5 -97z"/>
<path d="M1045 3150 c3 -5 1 -11 -5 -15 -16 -10 -12 -28 5 -22 8 4 17 2 20 -3
4 -6 1 -10 -6 -10 -15 0 -3 -13 14 -16 40 -6 42 -8 125 -87 114 -109 202 -292
213 -442 10 -144 1 -345 -21 -455 -6 -30 -13 -71 -16 -90 -3 -19 -9 -51 -14
-70 -33 -134 -40 -350 -14 -490 25 -141 118 -306 239 -425 62 -60 135 -112
121 -84 -4 8 -1 6 7 -3 8 -10 17 -15 20 -11 4 3 7 1 7 -6 0 -7 4 -9 10 -6 5 3
10 1 10 -5 0 -6 5 -8 10 -5 6 3 10 1 10 -5 0 -6 5 -8 10 -5 6 3 10 1 10 -5 0
-6 4 -9 9 -5 5 3 12 2 15 -3 5 -8 55 -16 99 -14 48 2 58 5 48 15 -5 5 -7 16
-4 23 3 9 -2 14 -13 14 -16 0 -16 2 -4 10 13 8 13 10 0 14 -8 3 -24 7 -35 9
-11 2 -31 9 -45 14 -14 6 -31 8 -39 5 -8 -3 -12 -1 -8 5 3 5 -10 17 -29 27
-24 11 -33 12 -28 4 12 -19 -156 152 -191 194 -16 20 -31 41 -32 47 -1 5 -16
31 -32 57 -17 26 -35 63 -41 83 -7 20 -14 43 -17 51 -10 25 -14 42 -25 117
-10 59 -9 98 4 205 15 123 22 168 33 208 2 8 7 31 10 50 3 19 10 54 16 78 23
104 34 440 17 537 -16 92 -31 142 -62 209 -43 90 -60 114 -71 96 -5 -8 -4 -11
2 -7 6 4 10 -1 9 -11 0 -9 4 -16 11 -15 8 2 10 -4 6 -14 -5 -12 -3 -14 7 -8 8
5 11 4 7 -2 -4 -6 6 -40 23 -74 85 -183 90 -447 14 -818 -44 -218 -55 -397
-30 -506 21 -91 56 -186 66 -180 5 3 12 0 16 -6 5 -8 3 -9 -6 -4 -8 5 -11 3
-8 -6 3 -8 10 -14 16 -14 5 0 14 -4 19 -9 5 -5 2 -6 -6 -1 -9 5 -12 3 -9 -6 3
-8 10 -13 16 -12 5 1 9 -5 8 -15 0 -9 4 -17 11 -17 6 0 15 -4 20 -9 5 -5 2 -6
-6 -1 -9 5 -12 3 -9 -6 3 -8 10 -14 16 -14 5 0 13 -3 16 -6 3 -3 -1 -6 -10 -6
-20 0 -90 103 -119 176 -69 169 -71 345 -11 643 104 510 58 804 -163 1041 -40
43 -64 86 -40 71 5 -3 7 -9 5 -13 -5 -8 60 -76 72 -76 4 0 6 -4 4 -8 -1 -5 2
-6 7 -3 5 3 8 -2 7 -12 0 -9 5 -16 12 -14 8 1 11 -2 6 -9 -4 -8 -3 -9 4 -5 8
5 10 1 6 -11 -5 -14 -4 -15 4 -4 8 11 5 23 -11 45 -36 51 -116 128 -127 121
-6 -3 -10 -1 -10 5 0 6 -4 8 -10 5 -5 -3 -10 -1 -10 6 0 7 -3 9 -6 6 -4 -3
-15 -2 -26 4 -24 13 -130 21 -123 9z m218 -184 c8 8 63 -70 97 -136 66 -131
85 -256 76 -484 -6 -156 -10 -191 -57 -436 -16 -85 -22 -154 -22 -265 0 -135
2 -159 27 -240 15 -49 40 -111 55 -136 23 -37 25 -46 12 -45 -9 2 -16 11 -16
22 0 10 -5 18 -12 17 -8 -2 -10 4 -6 14 4 9 2 14 -3 10 -5 -3 -10 2 -10 11 -1
9 -14 58 -29 107 -26 81 -28 104 -29 235 0 143 4 175 59 465 25 128 31 402 11
512 -19 108 -53 206 -68 197 -6 -4 -8 -2 -5 4 9 13 -2 44 -13 37 -5 -3 -12 0
-16 6 -5 8 -3 9 6 4 8 -5 11 -3 8 6 -3 8 -10 13 -16 12 -5 -1 -9 5 -8 15 0 9
-4 17 -11 17 -6 0 -15 4 -20 9 -5 5 -2 6 6 1 9 -5 12 -3 9 6 -3 8 -10 13 -16
12 -5 -1 -18 8 -28 20 -12 14 -13 17 -3 9 9 -6 18 -9 22 -6z"/>
<path d="M3539 1823 c-3 -28 -11 -62 -38 -168 -47 -180 -83 -471 -87 -705 -2
-171 -1 -197 14 -215 16 -19 16 -19 0 -6 -23 17 -24 0 -3 -33 13 -20 13 -23 0
-23 -8 0 -12 4 -9 9 3 4 -2 18 -10 30 l-16 22 0 -22 c0 -12 5 -22 12 -22 6 0
9 -3 5 -6 -3 -3 7 -29 22 -58 46 -83 55 -134 33 -181 -15 -30 -72 -101 -72
-89 0 3 -7 1 -15 -6 -8 -7 -15 -9 -15 -5 0 4 -6 3 -12 -2 -7 -5 -31 -10 -53
-12 -22 -1 -49 -5 -60 -9 -16 -5 -13 -7 15 -13 l35 -6 -34 -2 c-25 -1 -32 -5
-28 -16 4 -8 1 -17 -5 -21 -6 -4 -8 -3 -5 2 3 6 1 16 -4 24 -7 11 -8 8 -5 -10
2 -14 9 -24 15 -23 6 2 11 -1 11 -7 0 -5 27 -7 66 -5 88 6 134 15 134 27 0 6
7 7 15 4 9 -3 18 1 21 9 4 8 9 13 14 10 10 -6 44 33 65 74 23 45 28 163 10
231 -18 67 -59 131 -80 123 -14 -5 -14 -7 1 -24 9 -10 21 -17 27 -16 6 1 12
-5 13 -13 0 -8 2 -21 2 -28 1 -7 7 -10 14 -6 6 4 9 3 5 -2 -3 -5 1 -34 9 -64
16 -60 11 -127 -12 -173 -8 -15 -12 -33 -8 -40 4 -7 3 -9 -1 -4 -5 4 -25 -7
-44 -25 l-36 -33 31 35 c51 57 68 98 68 170 0 73 -27 147 -71 193 -15 15 -23
27 -18 27 4 0 0 9 -9 19 -13 14 -14 21 -5 27 7 4 10 3 6 -3 -4 -6 1 -17 11
-24 15 -13 16 -12 3 4 -7 9 -10 17 -6 17 4 0 3 6 -3 13 -17 21 23 418 74 732
28 172 39 325 24 325 -5 0 -10 -3 -11 -7z"/>
<path d="M2491 1748 c1 -34 26 -287 51 -503 16 -142 22 -255 23 -446 1 -140 5
-261 9 -268 4 -6 2 -19 -6 -28 -9 -12 -9 -15 0 -9 6 4 12 2 12 -3 0 -6 4 -11
8 -11 5 0 9 19 10 42 1 24 7 113 13 198 6 85 9 196 5 247 -17 246 -68 638
-101 773 -2 8 -4 18 -4 23 -2 18 -20 5 -20 -15z"/>
<path d="M2474 1678 c3 -46 7 -101 10 -123 3 -22 15 -132 26 -245 11 -113 23
-221 27 -240 3 -19 7 -136 8 -260 2 -285 3 -300 16 -300 6 0 8 9 3 23 -4 12
-8 135 -9 272 -2 248 -3 270 -61 773 -9 78 -14 149 -11 157 4 8 2 17 -3 20 -6
4 -8 -26 -6 -77z"/>
<path d="M2526 1738 c41 -188 90 -579 100 -793 3 -60 -1 -186 -8 -278 -8 -93
-11 -170 -8 -172 3 -2 7 12 8 32 2 20 5 40 7 44 3 4 7 105 9 226 4 193 0 291
-19 428 -3 22 -10 85 -15 140 -6 55 -13 115 -15 133 -14 92 -16 108 -20 122
-2 8 -7 31 -11 50 -3 19 -7 42 -9 50 -2 8 -4 21 -4 28 -1 6 -5 12 -10 12 -6 0
-8 -10 -5 -22z"/>
<path d="M3043 1560 c-1 -10 -7 -44 -13 -76 -15 -83 -22 -470 -10 -654 10
-168 11 -178 24 -200 7 -12 6 -13 -4 -3 -18 17 -19 23 -31 198 -11 169 -4 587
10 655 6 25 10 54 10 65 0 17 -1 18 -9 4 -18 -31 -25 -150 -25 -444 0 -336 9
-502 29 -525 34 -38 66 -117 66 -160 0 -47 -29 -122 -51 -136 -12 -7 -12 -5
-1 9 8 9 10 22 6 28 -4 7 -3 9 3 6 14 -9 33 46 33 95 0 46 -27 111 -43 101 -6
-3 -7 -1 -3 5 10 16 -12 54 -26 46 -6 -4 -8 -3 -5 2 7 12 -9 41 -18 33 -6 -7
41 -99 58 -114 13 -11 18 -26 22 -70 3 -35 -10 -70 -39 -105 -20 -24 -20 -24
-1 -10 18 14 19 14 7 -2 -8 -9 -20 -14 -28 -11 -8 3 -14 0 -14 -7 0 -6 -4 -9
-9 -5 -5 3 -12 1 -15 -4 -8 -13 -168 -12 -183 1 -7 6 -13 7 -13 4 0 -4 -9 -2
-20 4 -17 9 -20 8 -20 -13 0 -12 5 -28 11 -34 8 -8 7 -13 -2 -18 -8 -6 -10 -4
-4 5 6 9 4 11 -5 5 -9 -6 -11 -4 -5 6 7 12 6 12 -6 1 -12 -11 -11 -15 6 -25
34 -19 56 -22 184 -22 91 0 125 3 129 13 2 6 8 10 13 6 5 -3 9 0 9 6 0 6 4 9
8 6 12 -7 48 28 69 67 14 25 18 55 18 134 0 97 -1 103 -31 145 -17 23 -38 42
-46 42 -15 -1 -16 45 -13 473 3 260 6 477 9 481 2 4 -3 8 -13 9 -10 1 -17 -6
-18 -17z"/>
</g>
</svg>
